<svg width="17" height="20" viewBox="0 0 17 20" fill="none" xmlns="http://www.w3.org/2000/svg">
<path d="M5.43881 19.019C2.4622 19.0027 0 13.2245 0 10.2817C0 5.47475 3.792 4.42238 5.25341 4.42238C5.91201 4.42238 6.61525 4.66833 7.23553 4.88597C7.66928 5.03779 8.11788 5.19452 8.36737 5.19452C8.51671 5.19452 8.86862 5.0612 9.17932 4.94422C9.84194 4.69337 10.6665 4.38159 11.6266 4.38159C11.6284 4.38159 11.6307 4.38159 11.6323 4.38159C12.3493 4.38159 14.5231 4.53122 15.83 6.39763L16.1362 6.83511L15.6956 7.15127C15.0662 7.6029 13.9177 8.42674 13.9177 10.0586C13.9177 11.9914 15.2184 12.7347 15.8432 13.0923C16.119 13.2501 16.4045 13.4128 16.4045 13.7686C16.4045 14.001 14.4545 18.9902 11.6226 18.9902C10.9297 18.9902 10.4399 18.7922 10.0078 18.6175C9.57069 18.4406 9.19358 18.2883 8.57046 18.2883C8.25459 18.2883 7.85518 18.4303 7.43233 18.581C6.85447 18.7861 6.20041 19.019 5.45826 19.019H5.43881Z" fill="black" fill-opacity="0.4"/>
<path d="M11.9266 0C12.0004 2.52877 10.0986 4.28311 8.19902 4.17308C7.88601 2.15504 10.0984 0 11.9266 0Z" fill="black" fill-opacity="0.4"/>
</svg>
