<svg width="19" height="20" viewBox="0 0 19 20" fill="none" xmlns="http://www.w3.org/2000/svg">
<path d="M3.73973 0.30417C2.95727 -0.107099 2.03857 -0.0975896 1.26111 0.310114L10.3731 8.30371L13.4342 5.39273L3.73973 0.30417Z" fill="black" fill-opacity="0.4"/>
<path d="M0.349982 1.12793C0.127493 1.47382 0 1.86964 0 2.28922V16.7264C0 17.1329 0.116244 17.5204 0.326233 17.8591L9.4895 9.14526L0.349982 1.12793Z" fill="black" fill-opacity="0.4"/>
<path d="M17.4927 7.52265L14.5729 5.99048L11.2919 9.1095L15.3129 12.6362L17.494 11.4916C18.2789 11.0779 18.7489 10.3362 18.7489 9.50651C18.7477 8.67683 18.2789 7.93511 17.4927 7.52265Z" fill="black" fill-opacity="0.4"/>
<path d="M10.4081 9.95117L1.21997 18.6888C1.6187 18.9052 2.05617 19.0193 2.49614 19.0193C2.92111 19.0193 3.34859 18.9171 3.73981 18.7114L14.1604 13.2425L10.4081 9.95117Z" fill="black" fill-opacity="0.4"/>
</svg>
