<svg width="20" height="20" viewBox="0 0 20 20" fill="none" xmlns="http://www.w3.org/2000/svg">
<g clip-path="url(#clip0)">
<path d="M19.995 20.0001V19.9993H20V12.6643C20 9.07593 19.2275 6.31177 15.0324 6.31177C13.0158 6.31177 11.6624 7.41843 11.1099 8.4676H11.0516V6.64677H7.0741V19.9993H11.2158V13.3876C11.2158 11.6468 11.5458 9.96343 13.7016 9.96343C15.8258 9.96343 15.8574 11.9501 15.8574 13.4993V20.0001H19.995Z" fill="black" fill-opacity="0.64"/>
<path d="M0.329956 6.64746H4.47662V20H0.329956V6.64746Z" fill="black" fill-opacity="0.64"/>
<path d="M2.40167 0C1.07583 0 0 1.07583 0 2.40167C0 3.7275 1.07583 4.82583 2.40167 4.82583C3.7275 4.82583 4.80333 3.7275 4.80333 2.40167C4.8025 1.07583 3.72667 0 2.40167 0V0Z" fill="black" fill-opacity="0.64"/>
</g>
<defs>
<clipPath id="clip0">
<rect width="20" height="20" fill="white"/>
</clipPath>
</defs>
</svg>
