<svg width="24" height="18" viewBox="0 0 24 18" fill="none" xmlns="http://www.w3.org/2000/svg">
<path d="M0.501018 1.46044C3.79492 4.25002 9.5747 9.15773 11.2735 10.688C11.5015 10.8945 11.7461 10.9995 12 10.9995C12.2534 10.9995 12.4976 10.8955 12.7251 10.6899C14.4253 9.1582 20.2051 4.25002 23.4991 1.46044C23.7041 1.28709 23.7354 0.982406 23.5694 0.770484C23.1856 0.280781 22.6133 0 22 0H2.00003C1.38677 0 0.814471 0.280781 0.430706 0.770531C0.264674 0.982406 0.29594 1.28709 0.501018 1.46044Z" fill="black" fill-opacity="0.64"/>
<path d="M23.71 2.97215C23.5327 2.88965 23.3242 2.91843 23.1768 3.04443C19.5239 6.14109 14.8618 10.1104 13.395 11.4321C12.5717 12.1753 11.4292 12.1753 10.604 11.4311C9.0405 10.0224 3.80512 5.57175 0.823219 3.04439C0.674766 2.91839 0.465797 2.89059 0.290016 2.9721C0.113297 3.05418 0 3.23095 0 3.42576V16C0 17.103 0.896953 18 2.00002 18H22C23.103 18 24 17.103 24 16V3.42576C24 3.23095 23.8867 3.05371 23.71 2.97215Z" fill="black" fill-opacity="0.64"/>
</svg>
