<svg width="20" height="20" viewBox="0 0 20 20" fill="none" xmlns="http://www.w3.org/2000/svg">
<g clip-path="url(#clip0)">
<path d="M18.4042 3.94433L20 2.41766V2.0835H14.4717L10.5317 11.8902L6.04917 2.0835H0.2525V2.41766L2.11667 4.66183C2.29833 4.82766 2.39333 5.07016 2.36917 5.31433V14.1335C2.42667 14.451 2.32333 14.7777 2.1 15.0085L0 17.5535V17.8835H5.95417V17.5493L3.85417 15.0085C3.62667 14.7768 3.51917 14.456 3.565 14.1335V6.50516L8.79167 17.8877H9.39917L13.8933 6.50516V15.5727C13.8933 15.8118 13.8933 15.861 13.7367 16.0177L12.12 17.5818V17.9168H19.9633V17.5827L18.405 16.0568C18.2683 15.9535 18.1975 15.7802 18.2267 15.6118V4.38933C18.1975 4.22016 18.2675 4.04683 18.4042 3.94433Z" fill="black" fill-opacity="0.64"/>
</g>
<defs>
<clipPath id="clip0">
<rect width="20" height="20" fill="white"/>
</clipPath>
</defs>
</svg>
